<svg width="54" height="53" viewBox="0 0 54 53" fill="none" xmlns="http://www.w3.org/2000/svg">
<path d="M43.875 21.5312C45.6645 21.5291 47.3801 20.8304 48.6455 19.5884C49.9109 18.3465 50.6228 16.6626 50.625 14.9062V9.9375H45.5625C43.8347 9.94001 42.1745 10.5961 40.9269 11.7693C40.0527 10.2125 38.7693 8.9141 37.2103 8.00936C35.6513 7.10461 33.8737 6.62657 32.0625 6.625H27V11.5938C27.0031 14.2284 28.0709 16.7543 29.969 18.6172C31.8671 20.4802 34.4406 21.5282 37.125 21.5312H38.8125V43.0625H18.5625V34.7812H20.25C22.0395 34.7791 23.7551 34.0804 25.0205 32.8384C26.2859 31.5965 26.9978 29.9126 27 28.1562V23.1875H21.9375C20.2097 23.19 18.5495 23.8461 17.3019 25.0193C16.4277 23.4625 15.1443 22.1641 13.5853 21.2594C12.0263 20.3546 10.2487 19.8766 8.4375 19.875H3.375V24.8438C3.37813 27.4784 4.44587 30.0043 6.344 31.8672C8.24213 33.7302 10.8156 34.7782 13.5 34.7812H15.1875V43.0625H3.375V46.375H50.625V43.0625H42.1875V21.5312H43.875ZM42.1875 16.5625C42.1884 15.6842 42.5443 14.8422 43.177 14.2212C43.8097 13.6002 44.6677 13.2509 45.5625 13.25H47.25V14.9062C47.2491 15.7845 46.8932 16.6265 46.2605 17.2476C45.6278 17.8686 44.7698 18.2179 43.875 18.2188H42.1875V16.5625ZM18.5625 29.8125C18.5634 28.9342 18.9193 28.0922 19.552 27.4712C20.1847 26.8502 21.0427 26.5009 21.9375 26.5H23.625V28.1562C23.6241 29.0345 23.2682 29.8765 22.6355 30.4976C22.0028 31.1186 21.1448 31.4679 20.25 31.4688H18.5625V29.8125ZM15.1875 31.4688H13.5C11.7105 31.4666 9.99488 30.7679 8.7295 29.5259C7.46411 28.284 6.75223 26.6001 6.75 24.8438V23.1875H8.4375C10.227 23.1897 11.9426 23.8884 13.208 25.1303C14.4734 26.3723 15.1853 28.0561 15.1875 29.8125V31.4688ZM38.8125 18.2188H37.125C35.3355 18.2166 33.6199 17.5179 32.3545 16.2759C31.0891 15.034 30.3772 13.3501 30.375 11.5938V9.9375H32.0625C33.852 9.93969 35.5676 10.6384 36.833 11.8803C38.0984 13.1223 38.8103 14.8061 38.8125 16.5625V18.2188Z" fill="black"/>
</svg>
