<svg width="62" height="49" viewBox="0 0 62 49" fill="none" xmlns="http://www.w3.org/2000/svg">
<path d="M48.4375 16.8438H29.0625C28.5486 16.8438 28.0558 17.0051 27.6925 17.2922C27.3291 17.5794 27.125 17.9689 27.125 18.375V24.5C27.1297 26.6692 28.1046 28.7672 29.8773 30.4232C31.6501 32.0793 34.1065 33.1867 36.8125 33.5497V42.875H31V45.9375H46.5V42.875H40.6875V33.5497C43.3935 33.1867 45.8499 32.0793 47.6227 30.4232C49.3954 28.7672 50.3703 26.6692 50.375 24.5V18.375C50.375 17.9689 50.1709 17.5794 49.8075 17.2922C49.4442 17.0051 48.9514 16.8438 48.4375 16.8438ZM46.5 24.5C46.5 26.1245 45.6835 27.6824 44.2301 28.831C42.7767 29.9797 40.8054 30.625 38.75 30.625C36.6946 30.625 34.7233 29.9797 33.2699 28.831C31.8165 27.6824 31 26.1245 31 24.5V19.9062H46.5V24.5Z" fill="black"/>
<path d="M29.0625 1.53125H19.375C18.8611 1.53125 18.3683 1.69258 18.005 1.97974C17.6416 2.26691 17.4375 2.65639 17.4375 3.0625V14.3478C15.5548 15.2195 14.0148 16.4868 12.9887 18.0087C11.9625 19.5306 11.4905 21.2475 11.625 22.9688V44.4062C11.625 44.8124 11.8291 45.2018 12.1925 45.489C12.5558 45.7762 13.0486 45.9375 13.5625 45.9375H23.25V42.875H15.5V22.9688C15.5 18.0871 19.8225 16.8131 19.9872 16.7657L21.3125 16.415V4.59375H27.125V12.25H31V3.0625C31 2.65639 30.7958 2.26691 30.4325 1.97974C30.0691 1.69258 29.5763 1.53125 29.0625 1.53125Z" fill="black"/>
</svg>
