<svg width="53" height="47" viewBox="0 0 53 47" fill="none" xmlns="http://www.w3.org/2000/svg">
<path d="M14.7324 46.9948C20.4789 46.8775 25.9381 44.7281 29.9099 41.0192L46.1715 26.5035C53.9499 19.5602 55.1424 9.30252 48.8817 3.64143C42.621 -2.01967 31.0482 -0.979382 23.2697 6.0607L7.00811 20.5763C-0.77035 27.5196 -1.96287 37.7774 4.29785 43.4385C5.68994 44.6143 7.32806 45.5336 9.11851 46.1438C10.909 46.754 12.8166 47.0432 14.7324 46.9948ZM9.31184 25.2213L16.8464 31.9711L20.695 28.5357L13.1333 21.786L16.9548 18.3748L24.6248 25.2213L28.4734 21.786L20.8034 14.9394L24.6248 11.5283L32.2949 18.3748L36.1435 14.9394L28.5818 8.21385C34.0024 4.31882 41.1846 3.68981 44.8434 7.0768C48.5023 10.4638 47.7976 18.1087 42.1332 23.0924L25.8716 37.608C20.2884 42.5675 12.0763 43.6562 7.92961 40.0273C3.7829 36.3984 5.05672 30.1808 9.42025 25.3181L9.31184 25.2213Z" fill="black"/>
</svg>
