<svg width="66" height="47" viewBox="0 0 66 47" fill="none" xmlns="http://www.w3.org/2000/svg">
<path d="M47.8651 16.0661C47.8651 16.6103 47.6403 17.1322 47.2402 17.517C46.8401 17.9018 46.2975 18.118 45.7316 18.118C45.1658 18.118 44.6231 17.9018 44.223 17.517C43.8229 17.1322 43.5981 16.6103 43.5981 16.0661C43.5981 15.5219 43.8229 15 44.223 14.6152C44.6231 14.2304 45.1658 14.0142 45.7316 14.0142C46.2975 14.0142 46.8401 14.2304 47.2402 14.6152C47.6403 15 47.8651 15.5219 47.8651 16.0661ZM41.4646 22.2218C42.0305 22.2218 42.5731 22.0056 42.9732 21.6208C43.3734 21.236 43.5981 20.7141 43.5981 20.1699C43.5981 19.6257 43.3734 19.1038 42.9732 18.719C42.5731 18.3342 42.0305 18.118 41.4646 18.118C40.8988 18.118 40.3561 18.3342 39.956 18.719C39.5559 19.1038 39.3311 19.6257 39.3311 20.1699C39.3311 20.7141 39.5559 21.236 39.956 21.6208C40.3561 22.0056 40.8988 22.2218 41.4646 22.2218ZM52.1321 20.1699C52.1321 20.7141 51.9073 21.236 51.5072 21.6208C51.1071 22.0056 50.5644 22.2218 49.9986 22.2218C49.4328 22.2218 48.8901 22.0056 48.49 21.6208C48.0899 21.236 47.8651 20.7141 47.8651 20.1699C47.8651 19.6257 48.0899 19.1038 48.49 18.719C48.8901 18.3342 49.4328 18.118 49.9986 18.118C50.5644 18.118 51.1071 18.3342 51.5072 18.719C51.9073 19.1038 52.1321 19.6257 52.1321 20.1699ZM45.7316 26.3255C46.2975 26.3255 46.8401 26.1094 47.2402 25.7245C47.6403 25.3397 47.8651 24.8178 47.8651 24.2737C47.8651 23.7295 47.6403 23.2075 47.2402 22.8227C46.8401 22.4379 46.2975 22.2218 45.7316 22.2218C45.1658 22.2218 44.6231 22.4379 44.223 22.8227C43.8229 23.2075 43.5981 23.7295 43.5981 24.2737C43.5981 24.8178 43.8229 25.3397 44.223 25.7245C44.6231 26.1094 45.1658 26.3255 45.7316 26.3255ZM17.9962 14.0142H22.2632V18.118H26.5302V22.2218H22.2632V26.3255H17.9962V22.2218H13.7292V18.118H17.9962V14.0142Z" fill="black"/>
<path d="M11.8134 4.71096C11.7406 4.45039 11.7218 4.17855 11.7583 3.91101C11.7948 3.64347 11.8858 3.38548 12.0261 3.15182C12.1665 2.91815 12.3533 2.71339 12.576 2.54927C12.7987 2.38514 13.0529 2.26487 13.324 2.19534L21.5678 0.0695912C21.8512 -0.00304463 22.1471 -0.0187007 22.4371 0.0235998C22.7271 0.0659003 23.0049 0.165249 23.2531 0.315441C23.5014 0.465634 23.7148 0.663444 23.88 0.896517C24.0452 1.12959 24.1587 1.39292 24.2133 1.67006C27.0082 1.34586 29.9737 1.18992 32.9307 1.18992C36.003 1.18992 39.088 1.35818 41.9768 1.707C42.0266 1.42565 42.137 1.15741 42.3008 0.919417C42.4646 0.68142 42.6782 0.478901 42.9279 0.324802C43.1777 0.170703 43.4582 0.0684128 43.7514 0.0244686C44.0446 -0.0194755 44.3441 -0.00410749 44.6308 0.0695912L52.8746 2.19534C53.1892 2.27633 53.4803 2.42549 53.7257 2.6314C53.971 2.83731 54.1641 3.09451 54.2901 3.38328C54.4162 3.67205 54.4718 3.98474 54.4528 4.29739C54.4337 4.61003 54.3405 4.91434 54.1803 5.18699C54.7777 5.55633 55.3153 5.96671 55.7719 6.40581C57.5128 8.08015 59.1002 10.7148 60.4443 13.6777C61.8097 16.6858 63.0002 20.2068 63.8792 23.7976C64.7582 27.3884 65.3299 31.1023 65.4324 34.492C65.5348 37.8407 65.1806 41.0663 64.0328 43.5614C63.5093 44.6815 62.6313 45.614 61.524 46.2257C60.4167 46.8374 59.1368 47.097 57.867 46.9675C55.1532 46.6925 53.1093 45.3506 51.4111 43.7953C50.3656 42.8432 49.2946 41.6367 48.2578 40.4794C47.7201 39.8721 47.191 39.2811 46.6875 38.7435C43.5811 35.4441 39.8731 32.4771 32.9307 32.4771C25.9884 32.4771 22.2804 35.4441 19.174 38.7435C18.6662 39.2811 18.1414 39.8721 17.6037 40.4794C16.5669 41.6367 15.4959 42.8391 14.4504 43.7953C12.7522 45.3547 10.7083 46.6925 7.99449 46.9675C6.72467 47.097 5.44475 46.8374 4.33747 46.2257C3.23018 45.614 2.35214 44.6815 1.8287 43.5614C0.676617 41.0663 0.326725 37.8366 0.424865 34.492C0.527273 31.1023 1.10758 27.3925 1.98231 23.7976C2.86131 20.2068 4.05607 16.6858 5.41724 13.6777C6.76134 10.7148 8.34865 8.08015 10.0853 6.40581C10.6431 5.87961 11.2632 5.4182 11.9329 5.03105C11.8838 4.92636 11.8438 4.82202 11.8134 4.71096ZM20.501 6.40171C16.7589 7.16091 14.2328 8.21968 13.1063 9.30718C11.9287 10.4398 10.6016 12.5204 9.33006 15.3192C7.9811 18.3625 6.91308 21.514 6.13836 24.7374C5.31993 27.9749 4.83542 31.2821 4.69185 34.611C4.59798 37.7094 4.9564 40.225 5.72873 41.8993C5.88689 42.2254 6.14722 42.4958 6.47321 42.6724C6.7992 42.849 7.17449 42.9231 7.54646 42.8842C8.94176 42.7447 10.1493 42.0676 11.5105 40.8241C12.4151 39.9952 13.2173 39.0882 14.1347 38.0582C14.7022 37.418 15.3124 36.7327 16.0122 35.9899C19.5367 32.2432 24.3029 28.3774 32.9307 28.3774C41.5586 28.3774 46.3248 32.2432 49.8493 35.9899C50.5491 36.7327 51.1593 37.418 51.7268 38.0582C52.6399 39.0882 53.4464 39.9952 54.351 40.8241C55.7079 42.0676 56.9155 42.7447 58.315 42.8883C58.6875 42.9269 59.0631 42.8522 59.3892 42.6748C59.7152 42.4974 59.9753 42.2262 60.1328 41.8993C60.9008 40.225 61.2635 37.7135 61.1696 34.611C61.026 31.2821 60.5415 27.9749 59.7231 24.7374C58.9483 21.5141 57.8803 18.3626 56.5314 15.3192C55.2599 12.5204 53.9286 10.4357 52.7552 9.30718C51.6287 8.21968 49.1026 7.16091 45.3605 6.40171C41.7335 5.66713 37.3513 5.29369 32.9307 5.29369C28.5102 5.29369 24.128 5.66713 20.501 6.40171Z" fill="black"/>
</svg>
