<svg width="59" height="43" viewBox="0 0 59 43" fill="none" xmlns="http://www.w3.org/2000/svg">
<path d="M57.4434 8.59944L46.6388 0L43.5833 2.43192L50.066 7.59159V15.479C50.0671 16.391 50.5228 17.2654 51.3331 17.9103C52.1433 18.5552 53.242 18.9179 54.3878 18.9188V36.9776C54.3878 37.6618 54.0463 38.318 53.4384 38.8018C52.8306 39.2856 52.0061 39.5574 51.1465 39.5574C50.2868 39.5574 49.4623 39.2856 48.8545 38.8018C48.2466 38.318 47.9051 37.6618 47.9051 36.9776V22.3585C47.9051 21.9024 47.6774 21.4649 47.2722 21.1424C46.8669 20.8199 46.3173 20.6387 45.7442 20.6387H37.1005V3.43978C37.1005 2.98363 36.8729 2.54617 36.4676 2.22363C36.0624 1.90109 35.5127 1.71989 34.9396 1.71989H6.84773C6.27462 1.71989 5.72498 1.90109 5.31973 2.22363C4.91448 2.54617 4.68682 2.98363 4.68682 3.43978V39.5574H0.36499V42.9972H41.4223V39.5574H37.1005V24.0784H43.5833V36.8056C43.5577 38.2076 44.1369 39.5743 45.2242 40.6775C46.3116 41.7808 47.8412 42.554 49.5582 42.8682C50.6614 43.0549 51.803 43.0431 52.8997 42.8339C53.9965 42.6246 55.0207 42.2231 55.8976 41.6586C56.7745 41.0941 57.4821 40.381 57.9686 39.5711C58.4551 38.7613 58.7082 37.8752 58.7097 36.9776V11.0331C58.7098 10.5811 58.5981 10.1335 58.3808 9.71597C58.1635 9.29839 57.845 8.91898 57.4434 8.59944ZM28.4569 15.479H13.3305V12.0392H28.4569V15.479Z" fill="black"/>
</svg>
