<svg width="63" height="58" viewBox="0 0 63 58" fill="none" xmlns="http://www.w3.org/2000/svg">
<path d="M57.7592 32.5054L42.5368 27.4684L36.1738 20.1133C35.6205 19.4906 34.9236 18.989 34.1336 18.6451C33.3435 18.3012 32.4802 18.1235 31.6063 18.125H15.8642C14.9014 18.1247 13.9532 18.3412 13.1021 18.7557C12.2511 19.1702 11.5231 19.7701 10.9817 20.503L5.64244 27.7222C4.5304 29.2246 3.93623 31.0009 3.9375 32.8189V47.125C3.9375 47.6057 4.14492 48.0667 4.51414 48.4066C4.88335 48.7466 5.38411 48.9375 5.90625 48.9375H10.1233C10.5516 50.4931 11.531 51.8727 12.9067 52.8583C14.2823 53.8438 15.9757 54.3789 17.7188 54.3789C19.4618 54.3789 21.1552 53.8438 22.5308 52.8583C23.9065 51.8727 24.8859 50.4931 25.3142 48.9375H37.6858C38.1141 50.4931 39.0935 51.8727 40.4692 52.8583C41.8448 53.8438 43.5382 54.3789 45.2813 54.3789C47.0243 54.3789 48.7177 53.8438 50.0933 52.8583C51.469 51.8727 52.4484 50.4931 52.8767 48.9375H57.0938C57.6159 48.9375 58.1167 48.7466 58.4859 48.4066C58.8551 48.0667 59.0625 47.6057 59.0625 47.125V34.2109C59.0624 33.8377 58.9372 33.4736 58.704 33.1683C58.4707 32.8631 58.1407 32.6315 57.7592 32.5054ZM17.7188 50.75C16.94 50.75 16.1787 50.5374 15.5312 50.1391C14.8837 49.7408 14.379 49.1746 14.081 48.5122C13.783 47.8499 13.705 47.121 13.8569 46.4178C14.0088 45.7146 14.3838 45.0687 14.9345 44.5617C15.4852 44.0548 16.1868 43.7095 16.9506 43.5697C17.7144 43.4298 18.5061 43.5016 19.2256 43.7759C19.9451 44.0503 20.56 44.5149 20.9927 45.1111C21.4253 45.7072 21.6563 46.4081 21.6563 47.125C21.6547 48.086 21.2393 49.0072 20.5013 49.6867C19.7632 50.3662 18.7626 50.7486 17.7188 50.75ZM45.2813 50.75C44.5025 50.75 43.7412 50.5374 43.0937 50.1391C42.4462 49.7408 41.9415 49.1746 41.6435 48.5122C41.3455 47.8499 41.2675 47.121 41.4194 46.4178C41.5713 45.7146 41.9464 45.0687 42.497 44.5617C43.0477 44.0548 43.7493 43.7095 44.5131 43.5697C45.2769 43.4298 46.0686 43.5016 46.7881 43.7759C47.5076 44.0503 48.1225 44.5149 48.5552 45.1111C48.9878 45.7072 49.2188 46.4081 49.2188 47.125C49.2177 48.0861 48.8025 49.0076 48.0643 49.6872C47.3261 50.3668 46.3252 50.7491 45.2813 50.75ZM55.125 45.3125H52.8767C52.4484 43.757 51.469 42.3773 50.0933 41.3918C48.7177 40.4062 47.0243 39.8712 45.2813 39.8712C43.5382 39.8712 41.8448 40.4062 40.4692 41.3918C39.0935 42.3773 38.1141 43.757 37.6858 45.3125H25.3142C24.8859 43.757 23.9065 42.3773 22.5308 41.3918C21.1552 40.4062 19.4618 39.8712 17.7188 39.8712C15.9757 39.8712 14.2823 40.4062 12.9067 41.3918C11.531 42.3773 10.5516 43.757 10.1233 45.3125H7.875V32.8189C7.87479 31.7276 8.23152 30.6615 8.89875 29.7594L14.236 22.5439C14.4165 22.2993 14.6592 22.0992 14.943 21.9608C15.2268 21.8224 15.5431 21.7501 15.8642 21.75H31.6063C31.8928 21.749 32.176 21.8059 32.4359 21.9168C32.6958 22.0277 32.9261 22.1898 33.1104 22.3916L39.8042 30.1292C40.0318 30.3923 40.3345 30.5918 40.6783 30.7056L55.125 35.4851V45.3125Z" fill="black"/>
<path d="M48.3427 10.875C48.3427 9.91358 48.7575 8.99154 49.4959 8.31172C50.2343 7.6319 51.2359 7.24999 52.2802 7.24999H59.0625C58.2872 6.0043 57.1254 5.00019 55.7262 4.36642C54.3269 3.73264 52.7539 3.49809 51.2089 3.69283C49.6638 3.88758 48.2172 4.50274 47.0544 5.45945C45.8917 6.41615 45.0658 7.67079 44.6827 9.06249H31.5V12.6875H44.6827C45.0658 14.0792 45.8917 15.3338 47.0544 16.2905C48.2172 17.2472 49.6638 17.8624 51.2089 18.0571C52.7539 18.2519 54.3269 18.0173 55.7262 17.3836C57.1254 16.7498 58.2872 15.7457 59.0625 14.5H52.2802C51.2359 14.5 50.2343 14.1181 49.4959 13.4382C48.7575 12.7584 48.3427 11.8364 48.3427 10.875Z" fill="black"/>
</svg>
