<svg width="85" height="73" viewBox="0 0 85 73" fill="none" xmlns="http://www.w3.org/2000/svg">
<g style="mix-blend-mode:plus-lighter" clip-path="url(#clip0_128_143)">
<rect width="85" height="73" fill="black"/>
<path d="M85 63.875C85 66.2951 83.8806 68.6161 81.888 70.3273C79.8954 72.0386 77.1929 73 74.375 73H10.625C7.80707 73 5.10456 72.0386 3.11199 70.3273C1.11942 68.6161 0 66.2951 0 63.875V9.125C0 6.7049 1.11942 4.38392 3.11199 2.67265C5.10456 0.961381 7.80707 0 10.625 0L74.375 0C77.1929 0 79.8954 0.961381 81.888 2.67265C83.8806 4.38392 85 6.7049 85 9.125V63.875ZM61.0938 34.2188H30.3184L41.7244 24.4276C42.2231 23.9993 42.5034 23.4183 42.5034 22.8125C42.5034 22.2067 42.2231 21.6257 41.7244 21.1974C41.2256 20.769 40.5491 20.5284 39.8438 20.5284C39.1384 20.5284 38.4619 20.769 37.9631 21.1974L22.0256 34.8849C21.7783 35.0968 21.582 35.3485 21.4481 35.6257C21.3142 35.9028 21.2453 36.1999 21.2453 36.5C21.2453 36.8001 21.3142 37.0972 21.4481 37.3743C21.582 37.6515 21.7783 37.9032 22.0256 38.1151L37.9631 51.8026C38.4619 52.231 39.1384 52.4716 39.8438 52.4716C40.5491 52.4716 41.2256 52.231 41.7244 51.8026C42.2231 51.3743 42.5034 50.7933 42.5034 50.1875C42.5034 49.5817 42.2231 49.0007 41.7244 48.5724L30.3184 38.7812H61.0938C61.7982 38.7812 62.4739 38.5409 62.972 38.1131C63.4701 37.6853 63.75 37.105 63.75 36.5C63.75 35.895 63.4701 35.3147 62.972 34.8869C62.4739 34.4591 61.7982 34.2188 61.0938 34.2188Z" fill="white"/>
</g>
<defs>
<clipPath id="clip0_128_143">
<rect width="85" height="73" fill="white"/>
</clipPath>
</defs>
</svg>
