<svg width="41" height="52" viewBox="0 0 41 52" fill="none" xmlns="http://www.w3.org/2000/svg">
<path d="M12.4785 40.9991L16.3047 35.9986H20.1309L22.7326 32.5983C25.3922 33.8092 28.2874 33.8044 30.9446 32.5847C33.6017 31.365 35.8634 29.0026 37.3593 25.8842C38.8553 22.7657 39.497 19.076 39.1795 15.4189C38.8619 11.7617 37.6038 8.35376 35.6111 5.75279C33.6185 3.15182 31.0093 1.51189 28.2105 1.10141C25.4118 0.690926 22.5894 1.53421 20.2052 3.49323C17.8209 5.45225 16.0161 8.41097 15.0862 11.8852C14.1562 15.3593 14.1562 19.1432 15.086 22.6174L1 40.9991V51H8.65234L12.4785 45.9995V40.9991Z" stroke="black" stroke-width="2" stroke-linecap="round" stroke-linejoin="round"/>
<path d="M29.6963 15.9967C30.7529 15.9967 31.6094 14.8773 31.6094 13.4965C31.6094 12.1157 30.7529 10.9963 29.6963 10.9963C28.6397 10.9963 27.7832 12.1157 27.7832 13.4965C27.7832 14.8773 28.6397 15.9967 29.6963 15.9967Z" stroke="black" stroke-width="2" stroke-linecap="round" stroke-linejoin="round"/>
</svg>
