<svg width="69" height="64" viewBox="0 0 69 64" fill="none" xmlns="http://www.w3.org/2000/svg">
<path d="M36.5327 6.11466C36.266 5.86681 35.9491 5.67017 35.6004 5.53601C35.2516 5.40185 34.8777 5.33279 34.5001 5.33279C34.1225 5.33279 33.7487 5.40185 33.3999 5.53601C33.0511 5.67017 32.7343 5.86681 32.4675 6.11466L6.59249 30.1147C6.19054 30.4876 5.91682 30.9627 5.80594 31.4799C5.69506 31.9971 5.75199 32.5332 5.96955 33.0204C6.1871 33.5076 6.5555 33.924 7.02818 34.2171C7.50085 34.5101 8.05659 34.6666 8.62512 34.6667H11.5001V53.3333C11.5001 56.2747 14.079 58.6667 17.2501 58.6667H51.7501C54.9212 58.6667 57.5001 56.2747 57.5001 53.3333V34.6667H60.3751C60.9443 34.6678 61.501 34.5121 61.9745 34.2193C62.4481 33.9265 62.8172 33.5098 63.035 33.0221C63.2528 32.5343 63.3094 31.9976 63.1978 31.4799C63.0861 30.9623 62.8111 30.4871 62.4077 30.1147L36.5327 6.11466ZM51.753 53.3333H17.2501V27.7707L34.5001 11.7707L51.7501 27.7707V40L51.753 53.3333Z" fill="black"/>
<path d="M37.375 26.6667H31.625V34.6667H23V40H31.625V48H37.375V40H46V34.6667H37.375V26.6667Z" fill="black"/>
</svg>
