<svg width="76" height="74" viewBox="0 0 76 74" fill="none" xmlns="http://www.w3.org/2000/svg">
<path d="M0 64.75C0 67.2033 1.00089 69.556 2.78249 71.2907C4.56408 73.0254 6.98044 74 9.5 74H66.5C69.0196 74 71.4359 73.0254 73.2175 71.2907C74.9991 69.556 76 67.2033 76 64.75V9.25C76 6.79675 74.9991 4.44397 73.2175 2.70926C71.4359 0.974551 69.0196 0 66.5 0L9.5 0C6.98044 0 4.56408 0.974551 2.78249 2.70926C1.00089 4.44397 0 6.79675 0 9.25L0 64.75ZM21.375 34.6875H48.8918L38.6935 24.7622C38.2475 24.328 37.997 23.7391 37.997 23.125C37.997 22.5109 38.2475 21.922 38.6935 21.4877C39.1395 21.0535 39.7443 20.8096 40.375 20.8096C41.0057 20.8096 41.6105 21.0535 42.0565 21.4877L56.3065 35.3627C56.5277 35.5776 56.7032 35.8327 56.8229 36.1137C56.9426 36.3946 57.0042 36.6958 57.0042 37C57.0042 37.3042 56.9426 37.6054 56.8229 37.8863C56.7032 38.1672 56.5277 38.4224 56.3065 38.6372L42.0565 52.5122C41.6105 52.9465 41.0057 53.1904 40.375 53.1904C39.7443 53.1904 39.1395 52.9465 38.6935 52.5122C38.2475 52.078 37.997 51.4891 37.997 50.875C37.997 50.2609 38.2475 49.672 38.6935 49.2377L48.8918 39.3125H21.375C20.7451 39.3125 20.141 39.0689 19.6956 38.6352C19.2502 38.2015 19 37.6133 19 37C19 36.3867 19.2502 35.7985 19.6956 35.3648C20.141 34.9311 20.7451 34.6875 21.375 34.6875Z" fill="white"/>
</svg>
