<svg width="72" height="60" viewBox="0 0 72 60" fill="none" xmlns="http://www.w3.org/2000/svg">
<path d="M62.316 25.39L58.212 15.1275C57.6167 13.6337 56.4715 12.3342 54.9394 11.4138C53.4072 10.4933 51.5658 9.9986 49.677 10H42V5H30V10H22.323C20.4342 9.9986 18.5928 10.4933 17.0607 11.4138C15.5285 12.3342 14.3833 13.6337 13.788 15.1275L9.684 25.39C8.59384 25.7712 7.66283 26.4119 7.00753 27.2319C6.35224 28.0519 6.00177 29.0148 6 30V42.5C6 44.3825 7.269 46.005 9.117 46.8575C9.078 47.0225 9 47.1725 9 47.345V52.5C9 53.163 9.31607 53.7989 9.87868 54.2678C10.4413 54.7366 11.2044 55 12 55H15C15.7956 55 16.5587 54.7366 17.1213 54.2678C17.6839 53.7989 18 53.163 18 52.5V47.5H54V52.5C54 53.163 54.3161 53.7989 54.8787 54.2678C55.4413 54.7366 56.2044 55 57 55H60C60.7957 55 61.5587 54.7366 62.1213 54.2678C62.6839 53.7989 63 53.163 63 52.5V47.345C63 47.1725 62.922 47.02 62.883 46.8575C63.8232 46.4303 64.6085 45.8006 65.1568 45.0341C65.7051 44.2676 65.9963 43.3924 66 42.5V30C66 27.9275 64.476 26.1475 62.316 25.39ZM12 42.5V30H60L60.006 42.5H12ZM22.323 15H49.674C50.967 15 52.113 15.685 52.521 16.71L55.839 25H16.161L19.476 16.71C19.675 16.212 20.0572 15.7788 20.5681 15.4719C21.0791 15.165 21.6931 14.9999 22.323 15Z" fill="black"/>
<path d="M19.5 40C21.9853 40 24 38.3211 24 36.25C24 34.1789 21.9853 32.5 19.5 32.5C17.0147 32.5 15 34.1789 15 36.25C15 38.3211 17.0147 40 19.5 40Z" fill="black"/>
<path d="M52.5 40C54.9853 40 57 38.3211 57 36.25C57 34.1789 54.9853 32.5 52.5 32.5C50.0147 32.5 48 34.1789 48 36.25C48 38.3211 50.0147 40 52.5 40Z" fill="black"/>
</svg>
